<svg width="112" height="150" viewBox="0 0 112 150" fill="none" xmlns="http://www.w3.org/2000/svg">
<rect x="24.8889" y="112" width="12.4444" height="12.4444" transform="rotate(-90 24.8889 112)" fill="#0065B3"/>
<rect x="12.4444" y="112" width="12.4444" height="12.4444" transform="rotate(-90 12.4444 112)" fill="#0065B3"/>
<rect y="112" width="12.4444" height="12.4444" transform="rotate(-90 0 112)" fill="#0065B3"/>
<rect x="87.1111" y="112" width="12.4444" height="12.4444" transform="rotate(90 87.1111 112)" fill="#0065B3"/>
<rect x="99.5555" y="112" width="12.4444" height="12.4444" transform="rotate(90 99.5555 112)" fill="#0065B3"/>
<rect x="99.5555" y="99.5555" width="12.4444" height="12.4444" transform="rotate(90 99.5555 99.5555)" fill="#0065B3"/>
<rect x="112" y="99.5555" width="12.4444" height="12.4444" transform="rotate(90 112 99.5555)" fill="#0065B3"/>
<rect x="99.5555" y="87.1111" width="12.4444" height="12.4444" transform="rotate(90 99.5555 87.1111)" fill="#0065B3"/>
<rect x="87.1111" y="87.1111" width="12.4444" height="12.4444" transform="rotate(90 87.1111 87.1111)" fill="#0065B3"/>
<rect x="24.8889" y="87.1111" width="12.4444" height="12.4444" transform="rotate(90 24.8889 87.1111)" fill="#0065B3"/>
<rect x="37.3333" y="87.1111" width="12.4444" height="12.4444" transform="rotate(90 37.3333 87.1111)" fill="#0065B3"/>
<rect x="12.4444" y="12.4445" width="12.4444" height="12.4444" transform="rotate(90 12.4444 12.4445)" fill="#FF0000"/>
<rect x="24.8889" width="12.4444" height="12.4444" transform="rotate(90 24.8889 0)" fill="#FF0000"/>
<rect width="12.4444" height="12.4444" transform="matrix(4.37114e-08 1 1 -4.37114e-08 87.1111 0)" fill="#FF0000"/>
<rect x="37.3333" width="12.4444" height="12.4444" transform="rotate(90 37.3333 0)" fill="#FF0000"/>
<rect width="12.4444" height="12.4444" transform="matrix(4.37114e-08 1 1 -4.37114e-08 74.6667 0)" fill="#FF0000"/>
<rect x="49.7778" width="12.4444" height="12.4444" transform="rotate(90 49.7778 0)" fill="#FF0000"/>
<rect width="12.4444" height="12.4444" transform="matrix(4.37114e-08 1 1 -4.37114e-08 62.2222 0)" fill="#FF0000"/>
<rect x="62.2222" width="12.4444" height="12.4444" transform="rotate(90 62.2222 0)" fill="#FF0000"/>
<rect x="24.8889" y="12.4445" width="12.4444" height="12.4444" transform="rotate(90 24.8889 12.4445)" fill="#FF0000"/>
<rect width="12.4444" height="12.4444" transform="matrix(4.37114e-08 1 1 -4.37114e-08 87.1111 12.4445)" fill="#FF0000"/>
<rect x="37.3333" y="12.4445" width="12.4444" height="12.4444" transform="rotate(90 37.3333 12.4445)" fill="#FF0000"/>
<rect width="12.4444" height="12.4444" transform="matrix(4.37114e-08 1 1 -4.37114e-08 74.6667 12.4445)" fill="#FF0000"/>
<rect x="49.7778" y="12.4445" width="12.4444" height="12.4444" transform="rotate(90 49.7778 12.4445)" fill="#FF0000"/>
<rect width="12.4444" height="12.4444" transform="matrix(4.37114e-08 1 1 -4.37114e-08 62.2222 12.4445)" fill="#FF0000"/>
<rect x="49.7778" y="37.3333" width="12.4444" height="12.4444" transform="rotate(90 49.7778 37.3333)" fill="#FF0000"/>
<rect width="12.4444" height="12.4444" transform="matrix(4.37114e-08 1 1 -4.37114e-08 62.2222 37.3333)" fill="#FF0000"/>
<rect x="49.7778" y="62.2222" width="12.4444" height="12.4444" transform="rotate(90 49.7778 62.2222)" fill="#FF0000"/>
<rect width="12.4444" height="12.4444" transform="matrix(4.37114e-08 1 1 -4.37114e-08 62.2222 62.2222)" fill="#FF0000"/>
<rect x="24.8889" y="24.8889" width="12.4444" height="12.4444" transform="rotate(90 24.8889 24.8889)" fill="#FF0000"/>
<rect width="12.4444" height="12.4444" transform="matrix(4.37114e-08 1 1 -4.37114e-08 87.1111 24.8889)" fill="#FF0000"/>
<rect x="37.3333" y="24.8889" width="12.4444" height="12.4444" transform="rotate(90 37.3333 24.8889)" fill="#FF0000"/>
<rect width="12.4444" height="12.4444" transform="matrix(4.37114e-08 1 1 -4.37114e-08 74.6667 24.8889)" fill="#FF0000"/>
<rect x="24.8889" y="37.3333" width="12.4444" height="12.4444" transform="rotate(90 24.8889 37.3333)" fill="#FF0000"/>
<rect width="12.4444" height="12.4444" transform="matrix(4.37114e-08 1 1 -4.37114e-08 87.1111 37.3333)" fill="#FF0000"/>
<rect x="37.3333" y="37.3333" width="12.4444" height="12.4444" transform="rotate(90 37.3333 37.3333)" fill="#FF0000"/>
<rect width="12.4444" height="12.4444" transform="matrix(4.37114e-08 1 1 -4.37114e-08 74.6667 37.3333)" fill="#FF0000"/>
<rect x="24.8889" y="49.7778" width="12.4444" height="12.4444" transform="rotate(90 24.8889 49.7778)" fill="#FF0000"/>
<rect width="12.4444" height="12.4444" transform="matrix(4.37114e-08 1 1 -4.37114e-08 87.1111 49.7778)" fill="#FF0000"/>
<rect x="24.8889" y="62.2222" width="12.4444" height="12.4444" transform="rotate(90 24.8889 62.2222)" fill="#FF0000"/>
<rect width="12.4444" height="12.4444" transform="matrix(4.37114e-08 1 1 -4.37114e-08 87.1111 62.2222)" fill="#FF0000"/>
<rect x="37.3333" y="62.2222" width="12.4444" height="12.4444" transform="rotate(90 37.3333 62.2222)" fill="#FF0000"/>
<rect width="12.4444" height="12.4444" transform="matrix(4.37114e-08 1 1 -4.37114e-08 74.6667 62.2222)" fill="#FF0000"/>
<rect x="24.8889" y="74.6667" width="12.4444" height="12.4444" transform="rotate(90 24.8889 74.6667)" fill="#FF0000"/>
<rect width="12.4444" height="12.4444" transform="matrix(4.37114e-08 1 1 -4.37114e-08 87.1111 74.6667)" fill="#FF0000"/>
<rect x="37.3333" y="74.6667" width="12.4444" height="12.4444" transform="rotate(90 37.3333 74.6667)" fill="#FF0000"/>
<rect width="12.4444" height="12.4444" transform="matrix(4.37114e-08 1 1 -4.37114e-08 74.6667 74.6667)" fill="#FF0000"/>
<rect x="12.4444" y="24.8889" width="12.4444" height="12.4444" transform="rotate(90 12.4444 24.8889)" fill="#FF0000"/>
<rect x="12.4444" y="37.3333" width="12.4444" height="12.4444" transform="rotate(90 12.4444 37.3333)" fill="#FF0000"/>
<rect x="12.4444" y="49.7778" width="12.4444" height="12.4444" transform="rotate(90 12.4444 49.7778)" fill="#FF0000"/>
<rect x="12.4444" y="62.2222" width="12.4444" height="12.4444" transform="rotate(90 12.4444 62.2222)" fill="#FF0000"/>
<rect x="12.4444" y="74.6667" width="12.4444" height="12.4444" transform="rotate(90 12.4444 74.6667)" fill="#FF0000"/>
<rect x="12.4444" y="87.1111" width="12.4444" height="12.4444" transform="rotate(90 12.4444 87.1111)" fill="#FF0000"/>
<rect x="37.3333" y="112" width="12.4444" height="12.4444" transform="rotate(-90 37.3333 112)" fill="#0065B3"/>
<rect x="74.6667" y="112" width="12.4444" height="12.4444" transform="rotate(90 74.6667 112)" fill="#0065B3"/>
<rect x="62.2222" y="99.5555" width="12.4444" height="12.4444" transform="rotate(-90 62.2222 99.5555)" fill="#0065B3"/>
<rect x="49.7778" y="124.444" width="12.4444" height="12.4444" transform="rotate(90 49.7778 124.444)" fill="#0065B3"/>
<rect x="37.3333" y="124.444" width="12.4444" height="12.4444" transform="rotate(90 37.3333 124.444)" fill="#0065B3"/>
<rect x="49.7778" y="136.889" width="12.4444" height="12.4444" transform="rotate(90 49.7778 136.889)" fill="#0065B3"/>
<rect x="49.7778" y="87.1111" width="12.4444" height="12.4444" transform="rotate(-90 49.7778 87.1111)" fill="#0065B3"/>
<rect x="62.2222" y="87.1111" width="12.4444" height="12.4444" transform="rotate(-90 62.2222 87.1111)" fill="#0065B3"/>
<rect x="37.3333" y="87.1111" width="12.4444" height="12.4444" transform="rotate(-90 37.3333 87.1111)" fill="#0065B3"/>
<rect x="49.7778" y="74.6667" width="12.4444" height="12.4444" transform="rotate(-90 49.7778 74.6667)" fill="white"/>
<rect x="49.7778" y="62.2222" width="12.4444" height="12.4444" transform="rotate(-90 49.7778 62.2222)" fill="white"/>
<rect x="49.7778" y="49.7778" width="12.4444" height="12.4444" transform="rotate(-90 49.7778 49.7778)" fill="white"/>
<rect x="62.2222" y="37.3333" width="12.4444" height="12.4444" transform="rotate(-90 62.2222 37.3333)" fill="white"/>
<rect x="62.2222" y="62.2222" width="12.4444" height="12.4444" transform="rotate(-90 62.2222 62.2222)" fill="white"/>
<rect x="74.6667" y="62.2222" width="12.4444" height="12.4444" transform="rotate(-90 74.6667 62.2222)" fill="white"/>
<rect x="24.8889" y="62.2222" width="12.4444" height="12.4444" transform="rotate(-90 24.8889 62.2222)" fill="white"/>
<rect x="37.3333" y="37.3333" width="12.4444" height="12.4444" transform="rotate(-90 37.3333 37.3333)" fill="white"/>
<rect x="37.3333" y="62.2222" width="12.4444" height="12.4444" transform="rotate(-90 37.3333 62.2222)" fill="white"/>
<rect x="49.7778" y="37.3333" width="12.4444" height="12.4444" transform="rotate(-90 49.7778 37.3333)" fill="white"/>
<rect x="49.7778" y="24.8889" width="12.4444" height="12.4444" transform="rotate(-90 49.7778 24.8889)" fill="white"/>
<rect x="62.2222" y="136.889" width="12.4444" height="12.4444" transform="rotate(90 62.2222 136.889)" fill="#0065B3"/>
<rect x="37.3333" y="99.5555" width="12.4444" height="12.4444" transform="rotate(-90 37.3333 99.5555)" fill="#0065B3"/>
<rect x="74.6667" y="124.444" width="12.4444" height="12.4444" transform="rotate(90 74.6667 124.444)" fill="#0065B3"/>
<rect x="87.1111" y="124.444" width="12.4444" height="12.4444" transform="rotate(90 87.1111 124.444)" fill="#0065B3"/>
<rect x="74.6667" y="136.889" width="12.4444" height="12.4444" transform="rotate(90 74.6667 136.889)" fill="#0065B3"/>
<rect x="74.6667" y="112" width="12.4444" height="12.4444" transform="rotate(-90 74.6667 112)" fill="#0065B3"/>
<rect x="37.3333" y="112" width="12.4444" height="12.4444" transform="rotate(90 37.3333 112)" fill="#0065B3"/>
<rect x="24.8889" y="112" width="12.4444" height="12.4444" transform="rotate(90 24.8889 112)" fill="#0065B3"/>
<rect x="62.2222" y="112" width="12.4444" height="12.4444" transform="rotate(-90 62.2222 112)" fill="#0065B3"/>
<rect x="49.7778" y="112" width="12.4444" height="12.4444" transform="rotate(90 49.7778 112)" fill="#0065B3"/>
<rect x="49.7778" y="112" width="12.4444" height="12.4444" transform="rotate(-90 49.7778 112)" fill="#0065B3"/>
<rect x="62.2222" y="112" width="12.4444" height="12.4444" transform="rotate(90 62.2222 112)" fill="#0065B3"/>
<rect x="49.7778" y="99.5555" width="12.4444" height="12.4444" transform="rotate(-90 49.7778 99.5555)" fill="#0065B3"/>
<rect x="62.2222" y="124.444" width="12.4444" height="12.4444" transform="rotate(90 62.2222 124.444)" fill="#0065B3"/>
<rect x="112" y="12.4445" width="12.4444" height="12.4444" transform="rotate(90 112 12.4445)" fill="#FF0000"/>
<rect x="112" y="24.8889" width="12.4444" height="12.4444" transform="rotate(90 112 24.8889)" fill="#FF0000"/>
<rect x="112" y="37.3333" width="12.4444" height="12.4444" transform="rotate(90 112 37.3333)" fill="#FF0000"/>
<rect x="112" y="49.7778" width="12.4444" height="12.4444" transform="rotate(90 112 49.7778)" fill="#FF0000"/>
<rect x="112" y="62.2222" width="12.4444" height="12.4444" transform="rotate(90 112 62.2222)" fill="#FF0000"/>
<rect x="112" y="74.6667" width="12.4444" height="12.4444" transform="rotate(90 112 74.6667)" fill="#FF0000"/>
<rect x="112" y="87.1111" width="12.4444" height="12.4444" transform="rotate(90 112 87.1111)" fill="#FF0000"/>
</svg>
